<svg width="60" height="70" viewBox="0 0 60 70" fill="none" xmlns="http://www.w3.org/2000/svg">
<path d="M8.54558 24.0333C8.64558 24.5333 8.84558 25.0333 9.14558 25.4333C9.64558 26.2333 10.6456 26.6333 11.4456 26.9333C13.3456 27.7333 15.4456 28.2333 17.4456 27.8333C23.3456 26.5333 20.7456 18.9333 19.0456 15.2333C18.4456 14.0333 17.7456 12.8333 16.6456 12.1333C14.7456 11.0333 11.6456 11.2333 10.2456 12.8333C9.54558 13.5333 9.44558 14.4333 9.04558 15.3333C8.44558 16.9333 8.54558 18.5333 8.64558 20.3333C8.64558 21.4333 8.34558 22.8333 8.54558 24.0333ZM29.5456 50.3333C29.0456 49.8333 28.1456 50.0333 27.4456 50.6333C26.9456 51.0333 26.5456 51.5333 26.0456 51.5333C25.0456 52.1333 23.3456 52.8333 22.8456 53.5333C21.3456 54.3333 19.6456 56.0333 19.0456 56.0333C17.0456 57.7333 14.6456 58.9333 12.7456 60.6333C12.6456 60.6333 12.5456 60.6333 12.4456 60.6333C11.8456 60.8333 13.7456 56.3333 13.8456 56.2333C14.8456 54.3333 15.7456 52.3333 16.5456 50.3333C18.9456 43.7333 21.4456 36.5333 14.6456 31.5333C12.7456 30.1333 10.2456 29.3333 7.84558 29.2333C4.84558 29.2333 5.14558 31.5333 4.64558 33.9333C3.94558 37.0333 3.34558 40.2333 2.84558 43.3333C2.14558 47.8333 1.44558 52.3333 0.945583 56.7333C0.745583 59.1333 -0.454417 62.3333 1.34558 64.2333C3.34558 66.3333 6.94558 66.5333 9.54558 65.9333C12.6456 65.2333 15.3456 63.5333 17.8456 61.6333C20.7456 59.5333 23.5456 57.2333 26.1456 54.8333C27.0456 54.0333 29.4456 52.5333 29.7456 51.3333C29.8456 50.8333 29.7456 50.5333 29.5456 50.3333Z" fill="#FBC2EB"/>
<path d="M8.54556 24.0333C8.64556 24.5333 8.84556 25.0333 9.14556 25.4333C9.64556 26.2333 10.6456 26.6333 11.4456 26.9333C13.3456 27.7333 15.4456 28.2333 17.4456 27.8333C23.3456 26.5333 20.7456 18.9333 19.0456 15.2333C18.4456 14.0333 17.7456 12.8333 16.6456 12.1333C14.7456 11.0333 11.6456 11.2333 10.2456 12.8333C9.54556 13.5333 9.44556 14.4333 9.04556 15.3333C8.44556 16.9333 8.54556 18.5333 8.64556 20.3333C8.64556 21.4333 8.34556 22.8333 8.54556 24.0333Z" fill="white"/>
<path d="M29.5456 50.3333C29.0456 49.8333 28.1456 50.0333 27.4456 50.6333C26.9456 51.0333 26.5456 51.5333 26.0456 51.5333C25.0456 52.1333 23.3456 52.8333 22.8456 53.5333C21.3456 54.3333 19.6456 56.0333 19.0456 56.0333C17.0456 57.7333 14.6456 58.9333 12.7456 60.6333C12.6456 60.6333 12.5456 60.6333 12.4456 60.6333C11.8456 60.8333 13.7456 56.3333 13.8456 56.2333C14.8456 54.3333 15.7456 52.3333 16.5456 50.3333C18.9456 43.7333 21.4456 36.5333 14.6456 31.5333C12.7456 30.1333 10.2456 29.3333 7.84558 29.2333C4.84558 29.2333 5.14558 31.5333 4.64558 33.9333C3.94558 37.0333 3.34558 40.2333 2.84558 43.3333C2.14558 47.8333 1.44558 52.3333 0.945583 56.7333C0.745583 59.1333 -0.454417 62.3333 1.34558 64.2333C3.34558 66.3333 6.94558 66.5333 9.54558 65.9333C12.6456 65.2333 15.3456 63.5333 17.8456 61.6333C20.7456 59.5333 23.5456 57.2333 26.1456 54.8333C27.0456 54.0333 29.4456 52.5333 29.7456 51.3333C29.8456 50.8333 29.7456 50.5333 29.5456 50.3333Z" fill="white"/>
<path d="M49.5939 43.2333C51.1939 41.3333 53.0939 39.6333 54.8939 37.9333C56.2939 36.7333 60.6939 33.9333 59.3939 31.7333C58.9939 31.1333 58.3939 31.8333 57.8939 31.7333C55.7939 33.5333 53.3939 34.7333 51.0939 36.1333C50.7939 36.2333 50.4939 36.2333 50.0939 36.3333C48.6939 36.6333 50.1939 31.6333 50.3939 31.0333C50.9939 28.2333 51.3939 25.4333 51.7939 22.6333C52.2939 18.6333 52.5939 14.6333 52.6939 10.5333C52.7939 8.83334 52.8939 7.13334 52.2939 5.63334C50.4939 1.43334 41.7939 -0.866658 37.9939 2.03334C35.2939 4.23334 36.2939 11.1333 36.0939 14.3333C35.7939 19.7333 35.3939 25.2333 34.8939 30.6333C34.2939 37.4333 33.6939 44.2333 32.8939 51.0333C32.1939 56.9333 30.7939 62.5333 32.8939 68.3333C33.0939 68.9333 33.5939 69.5333 34.1939 69.1333C35.2939 68.4333 36.3939 68.3333 37.3939 67.5333C38.4939 66.6333 39.3939 65.0333 40.0939 63.8333C42.4939 59.5333 42.3939 54.6333 44.3939 50.1333C44.4939 50.0333 49.0939 54.8333 49.2939 55.1333C50.6939 56.4333 56.4939 62.5333 58.4939 59.4333C59.8939 57.1333 56.2939 53.5333 54.9939 52.0333C52.7939 49.5333 50.7939 47.0333 47.9939 45.1333C48.4939 44.4333 48.9939 43.8333 49.5939 43.2333ZM47.7939 45.5333C47.8939 45.5333 47.9939 45.4333 48.1939 45.4333C47.9939 45.5333 47.8939 45.5333 47.7939 45.5333Z" fill="#FBC2EB"/>
<path d="M49.5939 43.2333C51.1939 41.3333 53.0939 39.6333 54.8939 37.9333C56.2939 36.7333 60.6939 33.9333 59.3939 31.7333C58.9939 31.1333 58.3939 31.8333 57.8939 31.7333C55.7939 33.5333 53.3939 34.7333 51.0939 36.1333C50.7939 36.2333 50.4939 36.2333 50.0939 36.3333C48.6939 36.6333 50.1939 31.6333 50.3939 31.0333C50.9939 28.2333 51.3939 25.4333 51.7939 22.6333C52.2939 18.6333 52.5939 14.6333 52.6939 10.5333C52.7939 8.83334 52.8939 7.13334 52.2939 5.63334C50.4939 1.43334 41.7939 -0.866658 37.9939 2.03334C35.2939 4.23334 36.2939 11.1333 36.0939 14.3333C35.7939 19.7333 35.3939 25.2333 34.8939 30.6333C34.2939 37.4333 33.6939 44.2333 32.8939 51.0333C32.1939 56.9333 30.7939 62.5333 32.8939 68.3333C33.0939 68.9333 33.5939 69.5333 34.1939 69.1333C35.2939 68.4333 36.3939 68.3333 37.3939 67.5333C38.4939 66.6333 39.3939 65.0333 40.0939 63.8333C42.4939 59.5333 42.3939 54.6333 44.3939 50.1333C44.4939 50.0333 49.0939 54.8333 49.2939 55.1333C50.6939 56.4333 56.4939 62.5333 58.4939 59.4333C59.8939 57.1333 56.2939 53.5333 54.9939 52.0333C52.7939 49.5333 50.7939 47.0333 47.9939 45.1333C48.4939 44.4333 48.9939 43.8333 49.5939 43.2333Z" fill="white"/>
</svg>
